<?xml version="1.0" encoding="UTF-8"?><!DOCTYPE svg PUBLIC "-//W3C//DTD SVG 1.1//EN" "http://www.w3.org/Graphics/SVG/1.1/DTD/svg11.dtd"><svg xmlns="http://www.w3.org/2000/svg" xmlns:xlink="http://www.w3.org/1999/xlink"><defs/><symbol id="banki" viewBox="0 0 126 21"><path fill-rule="evenodd" clip-rule="evenodd" d="M17.098.631H9.4v4.23h7.697V.63zm92.362 5.64h-3.473c-1.333 0-2.484.06-3.087.203-.942.224-1.692.716-2.245 1.477a4.87 4.87 0 00-.991 2.934v9.484h4.198v-9.164c.014-1.557 1.26-2.115 1.96-2.115h3.638V6.27zM91.268 20.369V6.27h-4.199v14.098h4.198zM48.648 6.626c-.645-.236-1.44-.355-2.775-.355H38.79V9.1l5.468-.015 1.868.008c1.23.013 2.063 1.253 1.998 2.017l.011.808-6.821.005c-1.114 0-1.754.163-2.491.981a4.5 4.5 0 00-1.195 3.102c0 1.177.41 2.573 1.21 3.343.799.773 1.787 1.019 2.933 1.019h10.327v-7.983c0-1.622-.12-2-.281-2.507a10.43 10.43 0 01-.092-.298c-.316-.763-.717-1.328-1.33-1.94-.468-.458-1.086-.795-1.745-1.015zm-23.155-.348V.63h-4.149v19.74h8.96c1.718 0 3.107-.605 4.202-2.117 1.005-1.4 1.515-3.054 1.515-4.972 0-1.84-.51-3.445-1.53-4.782-1.096-1.434-2.487-2.153-4.139-2.22h-4.859zm48.98 7.073V.631h-4.198V20.37h4.198v-7.01l5.469 7.01h5.027l-5.92-7.013 5.906-7.011H79.97l-5.497 7.006zm-9.39-6.877c-.576-.143-1.512-.203-2.789-.203h-8.112v14.08l4.198.018V9.083l3.28-.005s2.325-.065 2.333 2.26l-.015 9.03h4.198l-.009-9.533a4.87 4.87 0 00-.933-2.885 3.589 3.589 0 00-2.15-1.476zm50.707 8.828l.015-9.031h-4.198l.009 9.534c0 1.046.312 2.013.934 2.884a3.584 3.584 0 002.15 1.476c.576.143 1.513.204 2.79.204h8.111V6.287l-4.198-.016v11.285l-3.279.006s-2.326.064-2.334-2.26zM25.473 9.09h3.44c.953 0 1.724.424 2.34 1.295.622.864.924 1.865.924 2.991 0 1.095-.289 2.08-.861 2.914-.56.831-1.3 1.26-2.222 1.26h-3.62V9.09zm17.27 5.649l5.361-.01.02 2.82h-5.531c-.367.002-.617.003-.928-.256-.324-.278-.539-.63-.539-1.066 0-.488.223-.887.561-1.182.36-.299 1.056-.306 1.056-.306zM91.267 1.336H87.07v3.525h4.198V1.336zm2.1 15.508h4.198v3.525h-4.198v-3.525zM5.203 8.385h11.895v4.23H5.203v-4.23zm11.895 7.754H.305v4.23h16.793v-4.23z" fill="#ACBBBE"/></symbol><symbol id="comersant" viewBox="0 0 128 17"><path fill-rule="evenodd" clip-rule="evenodd" d="M127.311 2.187a1.57 1.57 0 00-.809-1.375.3.3 0 01-.016.152 1.23 1.23 0 01-.122.245 4.085 4.085 0 01-.264.377 3.21 3.21 0 01-.282.298c-.084.082-.169.164-.246.254-.256.299-.401.76-.322 1.149.021.1.068.225.163.278.564.313.978-1.03.787-1.427-.027-.051-.079-.143-.15-.13-.354.066-.517 1.216-.297 1.3-.01.136-.226.219-.289-.033a1.023 1.023 0 01-.022-.27c.011-.384.317-.963.668-1.14.16-.083.385-.081.474.102.306.632-.487 1.785-1.207 1.75.117.028.238.043.362.043a1.58 1.58 0 001.572-1.573zm-.974-1.362a.867.867 0 01.067-.063 1.561 1.561 0 00-.665-.148 1.58 1.58 0 00-1.573 1.573c0 .626.373 1.17.907 1.423-.173-.136-.237-.381-.216-.617.022-.267.133-.52.287-.736.163-.23.376-.374.576-.51.179-.12.347-.234.459-.396 0 0 .009-.013.011-.02.004-.011-.009-.024-.025-.011a.682.682 0 01-.257.105c-.192.022-.296-.24-.328-.385l-.002-.008c-.006-.028-.01-.046-.038-.008-.043.057-.082.236-.121.414-.044.203-.088.404-.139.425l-.372.147s-.016.008-.022-.014c-.033-.126.201-.497.353-.737.039-.063.073-.116.095-.154l.032-.058a1.22 1.22 0 01.087-.15.64.64 0 01.232-.062c.048.451.411.195.567.07a1.08 1.08 0 00.085-.08zM123.9 2.187c0-1.01.829-1.84 1.839-1.84 1.014 0 1.838.825 1.839 1.84 0 1.01-.83 1.84-1.839 1.84a1.847 1.847 0 01-1.839-1.84zM9.29 13.74h5.117l-5.29-8.201L13.823.66H8.805L5.137 4.88V.66H.859v13.079h4.278V9.6l1.018-1.06 3.135 5.2zm10.423-6.473c.281.48.422 1.023.422 1.62a4.43 4.43 0 01-.367 1.823c-.244.548-.65.82-1.218.82-.589 0-1.028-.281-1.312-.845a3.895 3.895 0 01-.43-1.797c0-.592.134-1.131.403-1.618.268-.483.668-.725 1.196-.725.592 0 1.026.242 1.306.722zm-1.147 6.768c1.792 0 3.525-.701 4.536-2.2.81-1.203.97-3.173.52-4.573-.413-1.282-1.362-2.36-2.637-2.884a6.694 6.694 0 00-4.32-.254c-1.29.345-2.414 1.194-3.028 2.369-.797 1.526-.676 3.858.27 5.288 1.033 1.559 2.813 2.255 4.66 2.255zm37.03-7.402c.303.24.524.672.657 1.295h-3.522c.14-.637.342-1.072.61-1.306.267-.237.63-.353 1.089-.353.473 0 .86.12 1.166.364zm-2.828 3.142h7.145a6.545 6.545 0 00-.208-2.1 4.836 4.836 0 00-2.574-3.159c-1.475-.736-3.612-.779-5.138-.15-1.255.519-2.223 1.498-2.693 2.763a5.326 5.326 0 00.021 3.773 4.923 4.923 0 002.696 2.724c1.076.45 2.42.488 3.582.346.906-.104 1.823-.397 2.57-.923.741-.522 1.316-1.318 1.455-2.22h-3.66c-.125.636-.8.871-1.384.871-.797 0-1.353-.462-1.66-1.147a1.879 1.879 0 01-.152-.778zm13.828 4.256c1.565 0 2.863-.838 3.566-2.178.661-1.25.785-3.169.428-4.569-.382-1.505-1.455-2.845-3.047-3.242-1.462-.369-3.275.162-4.007 1.621v-1.42h-3.375v12.743h3.812v-4.1c.76.78 1.499 1.145 2.623 1.145zm.058-6.593c.27.473.404.913.404 1.316 0 .534-.128 1.073-.328 1.565-.222.51-.635.766-1.248.766-.629 0-1.048-.246-1.263-.738a3.976 3.976 0 01-.32-1.593c0-.464.137-.916.41-1.36.274-.445.666-.666 1.173-.666.51 0 .901.236 1.172.71zm7.363 6.177c1.475.614 3.488.534 4.97.015 1.662-.582 2.615-1.976 2.654-3.57h-3.77l-.001.007c-.248.794-.447 1.432-1.396 1.432-.672 0-1.363-.54-1.573-1.176-.318-.966-.235-2.268.269-3.149.394-.69 1.63-1.032 2.177-.332.193.247.325.536.394 1.004h3.9c-.19-1.522-.91-2.554-2.288-3.304-1.445-.787-3.706-.81-5.228-.189-1.33.543-2.252 1.326-2.784 2.69a5.36 5.36 0 00-.367 1.897c0 .977.264 1.937.772 2.77.52.867 1.343 1.519 2.271 1.905zm14.53-4.042a1.6 1.6 0 01.047.432c0 .587-.22 1.086-.653 1.5-.456.457-1.366.484-1.908.158-.469-.308-.498-1.068.038-1.333.378-.207.828-.301 1.25-.379.556-.107.964-.233 1.226-.378zm.387 4.167h3.902v-.295c-.383-.25-.576-.632-.576-1.149V7.274c-.062-.742-.196-1.347-.394-1.812-.199-.468-.626-.719-1.28-1.03-.656-.312-1.64-.468-2.953-.468-.54 0-1.026.02-1.465.055a9.382 9.382 0 00-1.141.149c-.668.139-1.19.35-1.569.62s-.656.596-.833.975c-.113.245-.145.483-.185.786-.022.17-.047.359-.09.582h3.614c.07-.344.222-.575.456-.69.234-.116.717-.173 1.105-.173.324 0 .573.06.747.182.175.121.261.27.261.45v.044c.002.116.004.228-.088.336-.104.121-.314.314-.493.373-.247.082-.76.158-1.327.242l-.297.044-1.598.24c-.182.027-.374.083-.577.141l-.007.002c-.207.06-.418.13-.631.213-.45.173-.7.338-.956.633-.447.517-.773 1.094-.773 1.793 0 .553.128 1.094.383 1.629.285.486.697.848 1.242 1.079a4.583 4.583 0 001.805.346c.365 0 .715-.03 1.044-.088.33-.06.65-.156.963-.276.642-.248 1.278-.55 1.563-.918l.148 1.006zm10.74 0h3.765l-.004-.17.004-9.323h-3.806v3.18h-2.746v-3.18h-3.728l-.003.143.003 9.35h3.728v-3.55h2.788v3.55zm10.982-6.695h3.241V4.246h-10.285v2.798h3.269v6.695h3.775V7.044zm14.432 5.746c.638-.522 1.035-1.255 1.035-2.089 0-.87-.438-1.633-1.097-2.18-.877-.727-2.103-.943-3.209-.943h-1.988V4.246h-5.809v2.798h2.177v6.695h5.826c1.066 0 2.226-.255 3.065-.95zm-3.619-2.999c.57.068.902.32.902.92 0 .667-.385.825-.964.868a6.345 6.345 0 01-.634.018l-.944-.018V9.746c.162 0 .616.006.956.02.339.015.568.025.684.025zM29.345 13.74h1.83l1.998-6.342-.308 2.486v3.856h3.338V4.19h-4.281L30.26 9.465l-1.662-5.274h-4.281v9.548h3.338V9.883l-.309-2.486 1.999 6.342zm12.501 0h1.83l1.999-6.342-.31 2.486v3.856h3.34V4.19h-4.282L42.76 9.465l-1.662-5.274h-4.281v9.548h3.338V9.883l-.309-2.486 2 6.342z" fill="#ACBBBE"/></symbol><symbol id="facebook" viewBox="0 0 24 24"><path d="M17.355 11.856h-3.2v10.898H9.306V11.856H7v-3.83h2.306V5.548c0-1.773.906-4.548 4.892-4.548l3.591.014v3.718h-2.606c-.427 0-1.028.198-1.028 1.044V8.03h3.624l-.424 3.826z" fill="#fff"/></symbol><symbol id="forbs" viewBox="0 0 86 23"><path fill-rule="evenodd" clip-rule="evenodd" d="M48.9.872v-.05l-.05.003a.68.68 0 00-.08.008l-.267.046c-.405.071-.811.142-1.217.215-.3.054-.601.11-.901.166h-.001c-.285.053-.57.106-.856.157l-1.039.187-.961.172a57.17 57.17 0 00-1.086.205c-.036.007-.088.056-.091.089-.01.132-.012.267 0 .399.004.039.057.097.096.104.093.018.187.03.281.043.102.013.203.026.304.046.458.091.835.307 1.051.742.236.473.333.982.354 1.505.027.687.05 1.374.061 2.061.015.929.025 1.858.022 2.786-.007 2.68-.02 5.358-.035 8.037-.003.46-.014.922-.025 1.382v.003l-.016.69-.01.597v.001c-.006.325-.012.65-.02.975-.002.09.016.137.119.155.315.056.63.114.945.173.49.09.98.182 1.472.263.447.073.9.115 1.35.156l.056.005c.176.017.353.023.53.03.137.005.274.01.41.02a10 10 0 002.006-.068c.538-.07 1.07-.201 1.596-.34a6.84 6.84 0 001.906-.852 6.887 6.887 0 001.77-1.595 7.527 7.527 0 001.223-2.332 9.98 9.98 0 00.406-1.975 9.397 9.397 0 00-.206-3.363 7.153 7.153 0 00-.64-1.663 6.404 6.404 0 00-1.162-1.56 5.727 5.727 0 00-1.22-.913 5.165 5.165 0 00-1.83-.612 7.037 7.037 0 00-2.306.089 6.46 6.46 0 00-1.799.637l-.013.007c-.107.056-.161.085-.188.069-.027-.017-.026-.08-.024-.205v-.021l.004-1.17c.002-.952.005-1.903.015-2.855.007-.584.025-1.168.043-1.752l.023-.8V.872zm4.788 13.398l-.036.003c.019.828-.057 1.651-.216 2.46-.112.57-.269 1.136-.455 1.686-.233.694-.575 1.338-1.072 1.885-.51.561-1.123.924-1.914.887a64.613 64.613 0 01-.913-.051c-.125-.008-.18-.065-.182-.204-.008-.41-.021-.821-.034-1.232a131.71 131.71 0 01-.068-3.46 589.41 589.41 0 01-.022-4.45c0-.542.007-1.084.014-1.625.005-.409.01-.817.013-1.225 0-.124.023-.184.156-.226.415-.13.832-.242 1.27-.25.8-.017 1.459.292 1.996.871.458.493.748 1.082.965 1.712.173.505.3 1.022.357 1.552.042.387.071.775.101 1.163l.04.504zM13.685 8.356v-.258h-.604c-.268 0-.268.002-.317.26l-.002.012c-.118.61-.307 1.194-.675 1.705a2.01 2.01 0 01-1.041.776c-.253.08-.509.09-.766.099l-.139.005-.563.026c-.486.021-.972.043-1.459.068-.117.006-.142-.032-.14-.144.008-.568.014-1.135.02-1.703.005-.516.01-1.032.018-1.548.007-.528.023-1.057.04-1.585l.044-1.318c.022-.648.044-1.295.063-1.943.004-.113.028-.153.151-.153a550.3 550.3 0 003.328.002c.454 0 .898.055 1.336.173a3.95 3.95 0 011.645.893c.633.568 1.078 1.271 1.427 2.036.16.35.297.71.434 1.069l.138.362c.025.064.042.094.117.07.265-.086.532-.167.8-.245.07-.02.092-.058.089-.129-.01-.201-.016-.403-.02-.605l-.008-.357a362.994 362.994 0 01-.072-4.582c-.001-.123-.039-.149-.154-.149-4.442.002-8.885.003-13.327.003H.411c-.039 0-.078.004-.121.007l-.069.006.002.21c.001.163.003.322-.005.482-.006.132.034.177.168.187.316.024.634.053.947.104.626.102 1.104.42 1.397.998.228.451.347.937.396 1.432a56.201 56.201 0 01.23 4.776c.007 1.169.001 2.339-.015 3.508-.013.972-.04 1.944-.068 2.916l-.007.217-.008.293c-.02.778-.04 1.556-.167 2.328-.076.46-.18.91-.403 1.323-.225.412-.548.715-1.015.828-.161.04-.325.069-.489.098-.085.015-.17.03-.256.047l-.488.098-.218.044v.168c-.001.176-.002.346.003.516.001.028.051.065.086.079.023.01.051.008.08.006a.464.464 0 01.034-.002h10.72a.797.797 0 01.078 0c.074.005.099-.03.098-.1v-.201c0-.127 0-.253-.005-.38-.002-.034-.048-.091-.082-.097a24.93 24.93 0 01-.252-.05c-.27-.052-.54-.105-.812-.13-.751-.066-1.293-.407-1.597-1.11-.248-.57-.35-1.176-.398-1.787a55.853 55.853 0 01-.132-2.485c-.025-.68-.037-1.36-.049-2.041l-.013-.705c-.003-.148-.002-.295-.001-.446v-.215h.121l.58.021c.481.017.962.033 1.442.058h.001c.29.015.587.03.866.102.6.155 1.004.565 1.294 1.099.263.485.41 1.009.515 1.545.02.101.064.122.155.12.145-.004.29-.002.436-.001l.119.001h.002c.174.001.175.001.175-.177v-6.53zm1.777 6.155a9.23 9.23 0 01.25-2.097 7.79 7.79 0 01.779-2.033A7.102 7.102 0 0117.72 8.76a6.811 6.811 0 011.742-1.234 7.484 7.484 0 011.78-.617c.301-.065.609-.1.916-.135l.18-.021c.765-.09 1.528-.042 2.286.075 1.136.175 2.19.563 3.116 1.258a6.254 6.254 0 011.725 1.98c.327.588.567 1.208.737 1.86.197.752.3 1.517.301 2.291a13.65 13.65 0 01-.087 1.592 7.503 7.503 0 01-.59 2.124 7.38 7.38 0 01-1.128 1.832 6.873 6.873 0 01-2.703 1.923c-.536.21-1.09.36-1.658.453a9.009 9.009 0 01-1.836.113 8.982 8.982 0 01-2.02-.298c-.854-.236-1.638-.605-2.335-1.15a6.206 6.206 0 01-1.448-1.615 7.502 7.502 0 01-.802-1.76 8.125 8.125 0 01-.331-1.585c-.031-.304-.052-.61-.073-.915l-.03-.42zm10.468-.202a87.696 87.696 0 00-.027-.41c-.02-.3-.041-.607-.056-.913a11.371 11.371 0 00-.305-2.086c-.196-.82-.462-1.615-.985-2.299-.337-.44-.75-.765-1.302-.877-.688-.14-1.298.03-1.802.517-.368.355-.59.808-.763 1.283a8.401 8.401 0 00-.383 1.546c-.116.727-.18 1.459-.2 2.194a55.21 55.21 0 00-.012 1.726c.004.844.084 1.681.233 2.511a9 9 0 00.524 1.865c.17.411.375.8.66 1.141.611.734 1.363.954 2.258.67.553-.176.93-.58 1.212-1.073.414-.728.604-1.529.722-2.347.075-.522.123-1.05.156-1.576.027-.43.04-.859.052-1.294l.018-.578zm46.8 4.84l-.09-.108-.217.14-.32.205a4.381 4.381 0 01-1.886.67 7.996 7.996 0 01-1.373.038 5.198 5.198 0 01-2.015-.521c-.964-.482-1.643-1.244-2.104-2.21a6.617 6.617 0 01-.517-1.638 8.832 8.832 0 01-.136-1.848c.001-.075.03-.095.1-.093.085.003.17.002.256.002h8.618c.168 0 .168-.001.169-.153v-.015a9.696 9.696 0 00-.179-1.844 7.586 7.586 0 00-.608-1.891 5.835 5.835 0 00-1.062-1.537 5.068 5.068 0 00-1.695-1.159 6.222 6.222 0 00-1.575-.41A8.085 8.085 0 0065.9 6.8c-.595.08-1.18.209-1.734.45l-.029.013c-.304.133-.61.266-.899.426a6.506 6.506 0 00-1.883 1.588 6.806 6.806 0 00-.958 1.513c-.2.444-.353.91-.503 1.375-.209.645-.286 1.317-.325 1.99a8.678 8.678 0 00.222 2.456c.169.736.436 1.435.816 2.087a6.88 6.88 0 001.592 1.884 7.216 7.216 0 002.527 1.337c.628.189 1.27.29 1.925.327a8.452 8.452 0 001.886-.11 7.642 7.642 0 002.876-1.129c.594-.396 1.131-.857 1.559-1.435.018-.026.033-.082.018-.1a10.674 10.674 0 00-.26-.322zm-4.026-6.583l-.006.067h-.473l-3.66.071a8.45 8.45 0 00-.387.02c-.076.005-.115-.02-.105-.103l.049-.417v-.001c.035-.312.07-.624.12-.934.052-.325.13-.648.218-.965.178-.635.424-1.242.82-1.776.328-.44.732-.775 1.297-.842.467-.055.857.114 1.167.47.267.307.431.67.552 1.05.232.728.344 1.479.376 2.241l.039 1.005a.832.832 0 01-.007.114zm16.263-3.838l.013.654.03 1.441c.003.129.007.258.015.386.005.08-.014.123-.102.144a3.24 3.24 0 00-.25.074 4.656 4.656 0 01-.23.068c-.03.007-.097-.03-.108-.06a9.556 9.556 0 00-.831-1.849c-.398-.662-.9-1.225-1.625-1.534a3.32 3.32 0 00-.864-.228 3.35 3.35 0 00-.895-.001c-.704.1-1.197.512-1.484 1.153a2.24 2.24 0 00-.087 1.66c.121.367.383.644.676.888.345.287.731.51 1.134.699.523.245 1.053.475 1.583.705l.049.022c.154.067.31.13.467.192.245.098.49.196.726.311.708.344 1.368.764 1.87 1.387.438.546.664 1.18.739 1.875a5 5 0 01-.087 1.615 4.368 4.368 0 01-1.047 2.045 5.204 5.204 0 01-1.665 1.197 7.07 7.07 0 01-2.02.582 9.675 9.675 0 01-2.158.078l-.307-.025c-.437-.035-.874-.07-1.308-.126a13.102 13.102 0 01-1.378-.255 15.16 15.16 0 01-.952-.276 32.017 32.017 0 00-.44-.135c-.087-.026-.108-.08-.11-.17a703.28 703.28 0 00-.073-3.254v-.008l-.004-.168a32.638 32.638 0 00-.022-.656c-.004-.075.017-.114.1-.132.146-.032.29-.074.432-.123.106-.036.154-.016.197.098.268.711.582 1.4 1.005 2.035.309.463.673.878 1.125 1.205.679.492 1.45.685 2.279.656.64-.023 1.22-.22 1.688-.68.354-.348.558-.77.63-1.265.049-.33.03-.653-.06-.968-.144-.506-.497-.85-.92-1.133-.606-.405-1.28-.667-1.956-.927-.128-.05-.256-.098-.384-.146-.49-.184-.98-.369-1.448-.598-.74-.362-1.39-.856-1.83-1.58a3.643 3.643 0 01-.43-1.03 4.661 4.661 0 01-.065-1.892c.066-.393.2-.77.38-1.13a4.554 4.554 0 011.237-1.511c.403-.323.84-.594 1.327-.773l.05-.019c.337-.124.676-.25 1.023-.333.294-.071.597-.107.9-.142l.155-.018c.704-.085 1.406-.032 2.109.026.734.06 1.456.185 2.164.382.268.074.531.17.794.265l.118.042c.038.014.08.077.082.12.016.329.027.659.036.934v.002l.007.204zm-47.855 1.314l.091-3.325-.4.08c-.286.057-.563.113-.84.166-.244.048-.489.094-.734.14-.294.056-.588.112-.882.17-.351.068-.702.138-1.053.208l-1.054.209c-.495.097-.99.19-1.486.282l-.018.004c-.068.012-.108.037-.105.115a5.3 5.3 0 010 .374c-.003.076.027.106.101.115.116.015.23.032.346.049.097.014.194.028.29.04.476.063.861.264 1.074.714.147.31.216.643.24.983l.018.234c.034.449.068.898.077 1.348.021 1.031.034 2.063.025 3.094-.009.969-.035 1.937-.06 2.906l-.017.652c-.014.546-.04 1.092-.27 1.603-.208.466-.575.718-1.077.786-.165.023-.33.048-.497.073l-.24.036v.767h8.944l.032.002a.251.251 0 00.084-.006c.025-.008.062-.039.062-.06.004-.186.004-.372.003-.557v-.145l-.32-.028c-.239-.022-.47-.043-.701-.058-.321-.023-.633-.075-.903-.262-.338-.236-.485-.594-.542-.975a16.086 16.086 0 01-.171-1.663 72.737 72.737 0 01-.08-3.094c-.002-.984.017-1.97.035-2.954l.016-.837a.295.295 0 01.079-.178c.276-.295.639-.438 1.018-.543a4.132 4.132 0 011.583-.102c.429.049.844.157 1.237.335.165.075.327.158.491.242l.224.114.012-.016a.136.136 0 00.023-.035l.329-.843.24-.617.435-1.114.178-.454.099-.251c.069-.176.138-.35.205-.527.028-.076.049-.14-.06-.197-.723-.383-1.493-.446-2.28-.316-.487.08-.944.269-1.372.525-.919.551-1.579 1.34-2.093 2.263-.071.127-.138.257-.204.386l-.091.18-.042-.008v-.03z" fill="#fff"/></symbol><symbol id="gerb" viewBox="0 0 23 24"><path d="M11.237.346C5.06.346 0 5.45 0 11.83c0 6.313 4.994 11.484 11.237 11.484 6.177 0 11.236-5.104 11.236-11.484 0-6.313-5.06-11.484-11.236-11.484zm0 22.028C5.52 22.374.92 17.673.92 11.83c0-5.843 4.6-10.544 10.317-10.544 5.717 0 10.316 4.701 10.316 10.544.066 5.843-4.6 10.544-10.316 10.544z" fill="#fff"/><path d="M11.237 20.426c.394 0 .591-.268.657-.604a.8.8 0 00.329.336c.13 0 .328 0 .46-.067a.801.801 0 00.328-.336.585.585 0 000-.47c.197.268.46.335.789.201.394-.201.525-.47.328-.873-.46-1.142-.92-2.216-1.38-3.358-.066-.134-.066-.201-.131-.336-.066-.067-.066-.134-.132-.201 0-.067-.065-.067-.131-.134.723.067 1.051.335 1.248.47.066.067.066.067.263 0h.263a.494.494 0 00.263.134l.789.604c.13.135.262.269.262.47 0 .135-.394.47-.46.605-.262.269.132.671.658.671-.132-.134-.198-.268-.132-.402.066 0 .132 0 .263-.068.131-.067.066-.403.131-.47.197-.201.723-.201 1.117-.201.132 0 .329-.067.263-.269.197 0 .263.202.263.336.197-.134.329-.604-.328-.739a.313.313 0 01.46 0c.131-.201-.198-.537-.723-.336 0 0-.263-.335-.92.47-.066-.067-.197-.134-.263-.2l-.92-.941c0-.403-.066-1.142-.526-1.545-.197-.201-.394-.268-.854-.403 0 0 .197-.336.263-.47.394.403 1.183.537 1.183-.134.657.671 1.248.268 1.248-.135 0 .202.066.403.132.605.065.201.394 1.074 1.117 1.074 0 .27 0 1.276.92 1.478.065 0 .065 0 .131.067.394.47 1.906.94 2.037.806-.131-.067-.328-.201-.328-.739 0-.335-.066-2.216-.066-4.835 0-.94-.066-3.963-3.023-4.366-.46-.067-.854 0-1.248.269-.526.403-.789 1.075-.46 1.813v.067c.131.202.065.336-.066.47a1.56 1.56 0 01-.854.47.737.737 0 01-.526-.2c-.329-.337-.526-.74-.657-1.21-.132-.873.066-1.343.066-1.41.262-.47.722-.873 1.314-.873.263-.537 1.051-.336 1.051-.336.197.067.263.067.329.202 0 0 .328-.538 0-.74-.329-.2-1.052-.268-1.052-.268 0-.336-.525-.604-1.577-.403-1.182.202-1.445-.268-1.445-.268-.066.604.394.873.525 1.007a5.332 5.332 0 00-1.248 2.955 5.332 5.332 0 00-1.249-2.955c.132-.067.592-.403.526-1.007 0 0-.263.47-1.446.268-.985-.201-1.577.067-1.577.403 0 0-.723.067-1.051.269-.329.201 0 .739 0 .739a.7.7 0 01.328-.202s.789-.201 1.052.336a1.7 1.7 0 011.314.873s.263.47.066 1.41c-.066.47-.329.873-.657 1.21-.132.134-.329.268-.526.2a1.56 1.56 0 01-.854-.47c-.132-.134-.197-.268-.066-.47v-.067c.329-.738.066-1.41-.46-1.813-.394-.269-.789-.336-1.249-.269-2.89.403-3.022 3.426-3.022 4.366 0 2.619-.066 4.5-.066 4.835 0 .538-.197.672-.329.739.198.134 1.709-.336 2.037-.806 0 0 .066-.067.132-.067.92-.202.92-1.209.92-1.478.723 0 1.051-.873 1.117-1.074.066-.202.131-.403.131-.605 0 .403.592.74 1.249.135 0 .671.788.537 1.183.134.065.134.263.47.263.47-.46.067-.658.202-.855.403-.525.47-.525 1.209-.525 1.545l-.92.94c-.066.067-.197.134-.263.202-.723-.806-.92-.47-.92-.47-.526-.202-.789.134-.723.335.131-.134.329-.067.46 0-.723.135-.526.672-.329.739 0-.134.066-.336.263-.336 0 .202.132.269.263.269.329 0 .92 0 1.117.201.132.067.066.403.132.47.065.068.197.068.263.068 0 .134 0 .201-.132.402.526.068.854-.402.657-.671-.131-.134-.46-.47-.46-.605 0-.134.132-.335.263-.47l.789-.604c.065-.067.131-.134.262-.134a.197.197 0 01.263 0c.197.067.197.067.263 0 .197-.135.526-.403 1.249-.47-.066 0-.066.067-.132.134-.065.067-.065.134-.131.201s-.066.202-.132.336c-.46 1.142-.92 2.216-1.38 3.358-.131.403 0 .672.329.873a.619.619 0 00.789-.201c-.066.201-.066.335 0 .47a.801.801 0 00.328.336c.132.067.329.067.46.067.197-.067.263-.135.329-.336.065.336.262.604.657.604z" fill="#fff"/></symbol><symbol id="instagram" viewBox="0 0 24 24"><path fill-rule="evenodd" clip-rule="evenodd" d="M16.534 2c3.4 0 6.167 2.766 6.167 6.167v8.367c0 3.4-2.767 6.167-6.167 6.167H8.167A6.174 6.174 0 012 16.534V8.167C2 4.767 4.766 2 8.167 2h8.367zm0 2.082H8.167a4.084 4.084 0 00-4.085 4.085v8.367a4.084 4.084 0 004.085 4.084h8.367a4.084 4.084 0 004.084-4.084V8.167a4.084 4.084 0 00-4.084-4.085zM12.35 6.997a5.36 5.36 0 015.354 5.353 5.36 5.36 0 01-5.354 5.354 5.36 5.36 0 01-5.353-5.354 5.36 5.36 0 015.353-5.353zm0 2.082a3.271 3.271 0 100 6.543 3.271 3.271 0 000-6.543zm5.71-2.796a1.07 1.07 0 110 2.141 1.07 1.07 0 010-2.141z" fill="#fff"/></symbol><symbol id="join" viewBox="0 0 16 16"><path d="M8.667 15.333H14a.667.667 0 00.667-.666V1.333A.667.667 0 0014 .667H8.667a.667.667 0 000 1.333h4.666v12H8.667a.667.667 0 100 1.333z" fill="#fff"/><path d="M1.333 8A.667.667 0 002 8.667h7.724l-1.529 1.528a.667.667 0 10.943.943l2.667-2.667a.667.667 0 000-.944L9.138 4.861a.667.667 0 10-.943.942l1.529 1.53H2A.667.667 0 001.333 8z" fill="#fff"/></symbol><symbol id="rbk" viewBox="0 0 78 22"><path fill-rule="evenodd" clip-rule="evenodd" d="M.325.631v19.223L19.541.63H.325zm1.373 20.596h19.216V2.004L1.698 21.227zM35.13 7.343c0 2.045-1.188 3.14-3.422 3.14h-2.32V4.174h2.32c2.177 0 3.422.864 3.422 3.054v.115zM31.82.631h-6.985v20.596h4.554v-7.49h2.573c4.61 0 7.58-2.073 7.58-6.423v-.115c0-4.35-2.8-6.568-7.721-6.568zm16.786 17.053c2.192 0 3.302-.98 3.302-2.852v-.115c0-1.844-1.11-2.852-3.413-2.852h-2.553v5.819h2.664zm.167 3.543h-7.27V.631h12.93v3.63H45.97l-.028 4.32h2.97c4.578 0 7.297 2.046 7.297 6.165v.115c0 4.033-2.525 6.366-7.436 6.366zM64.299.66h-4.781v20.567h4.78v-9.234l7.29 9.234h5.577l-8.764-10.844L76.752.63h-5.076L64.3 9.52V.66z" fill="#ACBBBE"/></symbol><symbol id="republic" viewBox="0 0 107 25"><path d="M106.259 18.571s-.403.443-.941.753c-.987.576-2.018.885-3.138 1.018a8.054 8.054 0 01-1.031.044c-4.259 0-6.455-2.655-6.455-6.284 0-5.09 4.258-6.284 7.037-6.284.807 0 1.613.132 2.42.486 1.211.531 1.973 1.637 1.973 2.788 0 1.152-.673 1.992-1.973 1.992-.762 0-1.299-.31-1.568-.93-.135-.31-.135-.62-.179-.929-.045-.31-.045-.62-.18-.93-.179-.53-.672-.84-1.165-.796a1.19 1.19 0 00-.941.442c-.359.398-.493.93-.493 1.46-.09 1.726.09 3.452.986 5.001.718 1.283 1.973 2.036 3.272 2.036.359 0 .763-.044 1.121-.177.403-.133.762-.31 1.121-.531l.134.84v.001zm-77.01-.973s.135.708.18.84c-.045.09-.314.31-.359.355-1.076.84-3.317 1.548-4.662 1.548-4.258 0-6.813-2.213-6.813-6.284 0-4.027 3.273-6.24 6.455-6.24 2.78 0 5.11 1.416 5.11 4.646v.443l-6.14 2.477.178.399c.314.708.718 1.371 1.434 1.903 1.121.84 2.87.885 4.259.132.09-.044.18-.132.358-.22zM22.66 14.19c.403-.177 1.524-.664 1.613-.708.448-.221.628-.398.673-.753.045-.31 0-1.239 0-1.46-.09-1.15-.493-1.77-1.031-1.77-1.479 0-1.748 1.991-1.255 4.69v.001zm68.09-8.054c1.478 0 2.644-1.15 2.644-2.61S92.184.915 90.749.915c-1.478 0-2.644 1.15-2.644 2.61s1.166 2.611 2.644 2.611zM18.4 19.014v.886h-6.5c-1.254-2.169-2.375-4.205-3.63-6.329-.045 0-.134-.044-.179-.044v3.85c0 1.195.403 1.637 1.613 1.637h.18v.886h-9.1v-.841c.314-.045.583-.045.897-.089.537-.133.897-.531.941-1.106V7.597a.897.897 0 00-.268-.664L.74 5.34c.135-.044.269-.088.403-.177l6.634-2.699v1.992s.224-.442.673-.885c.583-.531 1.524-.93 2.734-.93 1.658 0 3.272.885 4.124 2.169.673 1.017 1.031 2.168 1.031 3.319 0 3.894-3.406 5.575-6.275 5.575h-.27l-.044.133c.807.265 1.793.354 2.6.354.762 0 1.568-.089 2.062-.177l2.375 4.204c.493.886 1.39.797 1.613.797zM7.958 8.437c0 2.125 0 3.806 1.389 3.806 1.39 0 1.39-1.726 1.39-3.806 0-2.125-.135-3.806-1.39-3.806s-1.39 1.682-1.39 3.806zM85.19 18.97c-.673-.044-1.032-.398-1.032-1.018V2.11L77.3 4.898s.808.841 1.255 1.239c.135.133.224.31.27.53v10.887c0 .133 0 .31-.046.442-.09.62-.403.886-1.03.93h-.539v.885h8.517v-.885c-.18.044-.358.044-.538.044zm8.785 0c-.628-.044-.986-.398-1.03-1.018V7.686l-6.814 2.788s.807.84 1.255 1.239c.18.177.269.398.269.753v5.31c0 .841-.403 1.24-1.076 1.24h-.538v.884h8.517v-.885c-.224-.044-.404-.044-.584-.044h.001zm-32.9 0c-.718-.044-1.077-.398-1.121-1.106V7.64l-6.858 2.789s.807.84 1.255 1.239a1 1 0 01.268.531v4.381c0 .709-.538 1.195-1.255 1.195-.628 0-1.165-.486-1.165-1.195V7.598l-6.858 2.788s.807.841 1.255 1.24a.892.892 0 01.269.663v4.514c0 1.726 1.03 3.01 2.644 3.32.448.088.852.132 1.255.132 1.479 0 2.734-.576 3.81-1.77.045-.089.134-.133.179-.222.045 0 .09.044.09.044v1.505h6.634v-.885c-.09.044-.27.044-.404.044h.001zm-17.124-8.94c.672 1.018.986 2.301 1.03 3.673 0 1.726-.538 3.496-1.748 4.735-1.076 1.062-2.689 1.947-5.11 1.947-.493 0-.986-.088-1.524-.22v2.654c0 .841.358 1.195 1.21 1.24h.404v.884h-8.517v-.84c.224 0 .448-.045.717-.045.538-.088.897-.398.897-.93V12.464c0-.31-.09-.531-.27-.752-.447-.398-1.254-1.24-1.254-1.24l6.634-2.698v1.903l.09.044s.268-.487.583-.797c.896-.797 1.793-1.018 2.78-1.018 1.568-.088 3.227.797 4.078 2.125zm-4.572 4.293c0-2.478-.135-4.514-1.39-4.514s-1.39 2.036-1.39 4.514 0 4.514 1.39 4.514 1.39-2.036 1.39-4.514zM75.42 9.72c.896 1.15 1.254 2.433 1.254 3.938 0 2.036-.583 3.762-2.196 5.134-1.031.885-2.6 1.549-4.841 1.549-1.076 0-2.152-.177-3.183-.708a12.588 12.588 0 01-1.434-.886 186.67 186.67 0 00-1.255 1.107h-.762V6.844c0-.31-.09-.53-.269-.753-.448-.398-1.255-1.239-1.255-1.239l6.858-2.788v7.258l.09.044s.896-1.593 3.227-1.593a4.885 4.885 0 013.765 1.948zm-4.304 4.602c0-2.478-.134-4.514-1.39-4.514-1.254 0-1.389 2.036-1.389 4.514s0 4.514 1.39 4.514c1.389-.044 1.389-2.036 1.389-4.514z" fill="#ACBBBE"/></symbol><symbol id="telegram" viewBox="0 0 24 24"><path fill-rule="evenodd" clip-rule="evenodd" d="M9.24 14.863l-.347 5.026c.497 0 .712-.22.97-.483l2.33-2.291 4.829 3.637c.885.508 1.51.24 1.748-.838l3.17-15.275c.281-1.347-.473-1.874-1.336-1.543l-18.63 7.336c-1.27.507-1.251 1.236-.215 1.566l4.763 1.524 11.062-7.12c.521-.354.994-.158.605.197L9.24 14.863z" fill="#fff"/></symbol><symbol id="vc" viewBox="0 0 48 44"><path d="M37.937 20.257c3.433 0 6.018-1.42 7.924-3.89l-2.547-1.928a6.71 6.71 0 01-2.376 1.947 6.765 6.765 0 01-3 .69c-3.727 0-6.427-3.011-6.427-6.707 0-3.695 2.656-6.877 6.532-6.877 1.723 0 2.941.404 4.004 1.057v3.25h3.205V3.06l-.614-.48C42.876 1.206 40.185.476 37.936.476c-5.498 0-9.97 4.438-9.97 9.893 0 5.45 4.469 9.889 9.97 9.889h.001zm6.65 19.513l-.114-4.555V24.101h-6.685v3.182h3.309v7.54c0 3.249-2.5 5.548-5.023 5.548-2.522 0-3.839-1.735-3.839-4.982V24.1h-6.244v3.182h2.868v8.658c0 4.407 2.49 7.443 6.931 7.443 2.553 0 4.496-1.405 5.656-3.57h.051l.458 3.028h5.137v-3.068h-2.5v-.006l-.005.003zM27.227.942h-5.571l-4.845 13.96h-.076L11.916.942H5.98v3.183h3.339l5.745 15.91h3.053v-.003l5.991-15.906h3.116V.943l.003-.001zM.767 42.882h3.3v-3.274h-3.3v3.274zM13.515 27.79h-.037l-.207-3.69H7.38V27h3.135v12.77H7.38v3.068h14.562V39.83h-8.107v-7.706c.366-2.79 2.474-5.171 5.35-5.171h.052l-.058 2.851h3.205v-5.756H19.85c-2.902-.008-5.056 1.55-6.335 3.743v-.001z" fill="#ACBBBE"/></symbol><symbol id="vision" viewBox="0 0 123 23"><path fill-rule="evenodd" clip-rule="evenodd" d="M92.786 7.68h.452L93.033.89h-.412l-1.356 1.605c-1.029-.947-2.138-1.193-2.878-1.193-3.74 0-6.29 4.278-6.29 9.504 0 4.361 2.055 9.544 6.29 9.544 3.536 0 4.687-4.03 5.057-7.075l-.411-.124c-.329 2.428-1.234 5.595-3.536 5.595-2.056 0-2.096-3.126-2.096-3.949V6.363c0-1.276.081-3.95 1.89-3.95 1.645 0 3.084 2.304 3.495 5.266zM44.03 3.646c0-1.152.37-1.645.987-1.645.576 0 .987.493.987 1.645V18.05c0 1.11-.411 1.604-.987 1.604-.617 0-.987-.495-.987-1.604V3.647zm-5.344 7.2c0 4.527 2.137 9.504 6.33 9.504 4.194 0 6.29-4.977 6.29-9.504 0-4.567-2.096-9.545-6.29-9.545-4.193 0-6.33 4.978-6.33 9.545zm-22.9-8.475h-1.274v-.7h11.347v6.542h-.411c-.538-5.8-3.414-5.843-4.318-5.843h-.33v8.024h.247c1.645 0 2.303-2.057 2.22-3.909h.453v8.434h-.453c.083-1.851-.575-3.867-2.22-3.867h-.246v8.229c3.453.082 4.645-3.127 4.933-6.377h.452v7.036H14.511v-.66h1.274V2.372zm-9.208 7.694V2.372h.706c.496-.003 1.266-.007 1.266 2.221v3.21c0 2.265-.795 2.263-1.29 2.263h-.683zM1.52 19.281H.286v.659h8.962c2.18 0 4.44-.783 4.44-4.321 0-2.427-.863-4.731-4.234-5.06v-.289c1.645-.123 3.947-.905 3.947-4.32 0-3.867-3.001-4.279-3.988-4.279H.286v.7H1.52v16.91zm5.058 0v-8.558h.683c.495 0 1.29-.002 1.29 2.263v4.031c0 2.266-.796 2.265-1.29 2.264h-.683zm25.695 0V2.372h-.863c-.37 0-.823.041-.823 1.481v5.555c0 4.525-.164 7.694-1.644 9.874h3.33zM28.45 2.372v-.7h10.113v.7H37.33v16.91h1.562v3.662h-.41c-.083-2.715-1.07-3.003-3.249-3.003h-4.357c-2.18 0-3.166.288-3.248 3.003h-.412v-3.662h.247c1.603 0 2.631-2.468 2.631-9.874v-5.35c0-1.604-.576-1.686-.987-1.686h-.657zM53.486 3.77h.04l3.536 16.17h.699l3.576-16.088h.082v15.43h-1.233v.658h7.524v-.659h-1.234V2.372h1.234v-.7h-6.331l-1.645 7.447h-.082l-1.603-7.447h-6.331v.7h1.274v14.646c0 2.016-.74 2.305-1.274 2.264v.659h3.37v-.659h-.328c-.576 0-1.274-.205-1.274-2.264V3.771zm20.143-.124c0-1.152.41-1.645.987-1.645.617 0 .986.493.986 1.645V18.05c0 1.11-.37 1.604-.986 1.604-.576 0-.987-.495-.987-1.604V3.647zm-5.304 7.2c0 4.527 2.097 9.504 6.29 9.504s6.332-4.977 6.332-9.504c0-4.567-2.139-9.545-6.331-9.545-4.194 0-6.29 4.978-6.29 9.545zm29.602-8.475h-.003.003zm-.003 0c-2.342.208-3.163 3.868-3.327 5.842h-.412V1.672h12.539v6.542h-.452c-.165-1.974-.988-5.637-3.291-5.842v16.91h1.481v.659h-8.059v-.659h1.521V2.372zm16.036 12.055h-.081V2.372h.616v-.7h-6.909v.7h1.236v16.91h-1.236v.659h6.909v-.659h-.616v-2.016l1.891-10.78h.081v12.796h-.617v.659h6.907v-.659h-1.233V2.372h1.233v-.7h-6.907v.7h.617v1.234l-1.891 10.821z" fill="#ACBBBE"/></symbol><symbol id="youtube" viewBox="0 0 24 24"><path d="M12.836 5c1.364.007 6.46.056 7.88.418.899.225 1.608.885 1.85 1.723.39 1.326.43 3.898.433 4.56v.249c-.004.528-.043 3.235-.433 4.612-.242.837-.95 1.498-1.85 1.723-1.457.357-6.787.398-7.98.402h-.474c-1.19-.005-6.508-.047-7.98-.418-.9-.225-1.608-.886-1.85-1.723-.375-1.312-.425-3.882-.432-4.544v-.316c.007-.66.057-3.22.431-4.545.242-.837.97-1.514 1.851-1.74 1.42-.347 6.516-.395 7.88-.401h.674zm-2.43 3.912v5.862l5.466-2.93-5.466-2.932z" fill="#fff"/></symbol></svg>