<svg fill="none" xmlns="http://www.w3.org/2000/svg" viewBox="0 0 126 21"><path fill-rule="evenodd" clip-rule="evenodd" d="M17.098.631H9.4v4.23h7.697V.63zm92.362 5.64h-3.473c-1.333 0-2.484.06-3.087.203-.942.224-1.692.716-2.245 1.477a4.87 4.87 0 00-.991 2.934v9.484h4.198v-9.164c.014-1.557 1.26-2.115 1.96-2.115h3.638V6.27zM91.268 20.369V6.27h-4.199v14.098h4.198zM48.648 6.626c-.645-.236-1.44-.355-2.775-.355H38.79V9.1l5.468-.015 1.868.008c1.23.013 2.063 1.253 1.998 2.017l.011.808-6.821.005c-1.114 0-1.754.163-2.491.981a4.5 4.5 0 00-1.195 3.102c0 1.177.41 2.573 1.21 3.343.799.773 1.787 1.019 2.933 1.019h10.327v-7.983c0-1.622-.12-2-.281-2.507a10.43 10.43 0 01-.092-.298c-.316-.763-.717-1.328-1.33-1.94-.468-.458-1.086-.795-1.745-1.015zm-23.155-.348V.63h-4.149v19.74h8.96c1.718 0 3.107-.605 4.202-2.117 1.005-1.4 1.515-3.054 1.515-4.972 0-1.84-.51-3.445-1.53-4.782-1.096-1.434-2.487-2.153-4.139-2.22h-4.859zm48.98 7.073V.631h-4.198V20.37h4.198v-7.01l5.469 7.01h5.027l-5.92-7.013 5.906-7.011H79.97l-5.497 7.006zm-9.39-6.877c-.576-.143-1.512-.203-2.789-.203h-8.112v14.08l4.198.018V9.083l3.28-.005s2.325-.065 2.333 2.26l-.015 9.03h4.198l-.009-9.533a4.87 4.87 0 00-.933-2.885 3.589 3.589 0 00-2.15-1.476zm50.707 8.828l.015-9.031h-4.198l.009 9.534c0 1.046.312 2.013.934 2.884a3.584 3.584 0 002.15 1.476c.576.143 1.513.204 2.79.204h8.111V6.287l-4.198-.016v11.285l-3.279.006s-2.326.064-2.334-2.26zM25.473 9.09h3.44c.953 0 1.724.424 2.34 1.295.622.864.924 1.865.924 2.991 0 1.095-.289 2.08-.861 2.914-.56.831-1.3 1.26-2.222 1.26h-3.62V9.09zm17.27 5.649l5.361-.01.02 2.82h-5.531c-.367.002-.617.003-.928-.256-.324-.278-.539-.63-.539-1.066 0-.488.223-.887.561-1.182.36-.299 1.056-.306 1.056-.306zM91.267 1.336H87.07v3.525h4.198V1.336zm2.1 15.508h4.198v3.525h-4.198v-3.525zM5.203 8.385h11.895v4.23H5.203v-4.23zm11.895 7.754H.305v4.23h16.793v-4.23z" fill="#ACBBBE"/></svg>