<svg fill="none" xmlns="http://www.w3.org/2000/svg" viewBox="0 0 86 23"><path fill-rule="evenodd" clip-rule="evenodd" d="M48.9.872v-.05l-.05.003a.68.68 0 00-.08.008l-.267.046c-.405.071-.811.142-1.217.215-.3.054-.601.11-.901.166h-.001c-.285.053-.57.106-.856.157l-1.039.187-.961.172a57.17 57.17 0 00-1.086.205c-.036.007-.088.056-.091.089-.01.132-.012.267 0 .399.004.039.057.097.096.104.093.018.187.03.281.043.102.013.203.026.304.046.458.091.835.307 1.051.742.236.473.333.982.354 1.505.027.687.05 1.374.061 2.061.015.929.025 1.858.022 2.786-.007 2.68-.02 5.358-.035 8.037-.003.46-.014.922-.025 1.382v.003l-.016.69-.01.597v.001c-.006.325-.012.65-.02.975-.002.09.016.137.119.155.315.056.63.114.945.173.49.09.98.182 1.472.263.447.073.9.115 1.35.156l.056.005c.176.017.353.023.53.03.137.005.274.01.41.02a10 10 0 002.006-.068c.538-.07 1.07-.201 1.596-.34a6.84 6.84 0 001.906-.852 6.887 6.887 0 001.77-1.595 7.527 7.527 0 001.223-2.332 9.98 9.98 0 00.406-1.975 9.397 9.397 0 00-.206-3.363 7.153 7.153 0 00-.64-1.663 6.404 6.404 0 00-1.162-1.56 5.727 5.727 0 00-1.22-.913 5.165 5.165 0 00-1.83-.612 7.037 7.037 0 00-2.306.089 6.46 6.46 0 00-1.799.637l-.013.007c-.107.056-.161.085-.188.069-.027-.017-.026-.08-.024-.205v-.021l.004-1.17c.002-.952.005-1.903.015-2.855.007-.584.025-1.168.043-1.752l.023-.8V.872zm4.788 13.398l-.036.003c.019.828-.057 1.651-.216 2.46-.112.57-.269 1.136-.455 1.686-.233.694-.575 1.338-1.072 1.885-.51.561-1.123.924-1.914.887a64.613 64.613 0 01-.913-.051c-.125-.008-.18-.065-.182-.204-.008-.41-.021-.821-.034-1.232a131.71 131.71 0 01-.068-3.46 589.41 589.41 0 01-.022-4.45c0-.542.007-1.084.014-1.625.005-.409.01-.817.013-1.225 0-.124.023-.184.156-.226.415-.13.832-.242 1.27-.25.8-.017 1.459.292 1.996.871.458.493.748 1.082.965 1.712.173.505.3 1.022.357 1.552.042.387.071.775.101 1.163l.04.504zM13.685 8.356v-.258h-.604c-.268 0-.268.002-.317.26l-.002.012c-.118.61-.307 1.194-.675 1.705a2.01 2.01 0 01-1.041.776c-.253.08-.509.09-.766.099l-.139.005-.563.026c-.486.021-.972.043-1.459.068-.117.006-.142-.032-.14-.144.008-.568.014-1.135.02-1.703.005-.516.01-1.032.018-1.548.007-.528.023-1.057.04-1.585l.044-1.318c.022-.648.044-1.295.063-1.943.004-.113.028-.153.151-.153a550.3 550.3 0 003.328.002c.454 0 .898.055 1.336.173a3.95 3.95 0 011.645.893c.633.568 1.078 1.271 1.427 2.036.16.35.297.71.434 1.069l.138.362c.025.064.042.094.117.07.265-.086.532-.167.8-.245.07-.02.092-.058.089-.129-.01-.201-.016-.403-.02-.605l-.008-.357a362.994 362.994 0 01-.072-4.582c-.001-.123-.039-.149-.154-.149-4.442.002-8.885.003-13.327.003H.411c-.039 0-.078.004-.121.007l-.069.006.002.21c.001.163.003.322-.005.482-.006.132.034.177.168.187.316.024.634.053.947.104.626.102 1.104.42 1.397.998.228.451.347.937.396 1.432a56.201 56.201 0 01.23 4.776c.007 1.169.001 2.339-.015 3.508-.013.972-.04 1.944-.068 2.916l-.007.217-.008.293c-.02.778-.04 1.556-.167 2.328-.076.46-.18.91-.403 1.323-.225.412-.548.715-1.015.828-.161.04-.325.069-.489.098-.085.015-.17.03-.256.047l-.488.098-.218.044v.168c-.001.176-.002.346.003.516.001.028.051.065.086.079.023.01.051.008.08.006a.464.464 0 01.034-.002h10.72a.797.797 0 01.078 0c.074.005.099-.03.098-.1v-.201c0-.127 0-.253-.005-.38-.002-.034-.048-.091-.082-.097a24.93 24.93 0 01-.252-.05c-.27-.052-.54-.105-.812-.13-.751-.066-1.293-.407-1.597-1.11-.248-.57-.35-1.176-.398-1.787a55.853 55.853 0 01-.132-2.485c-.025-.68-.037-1.36-.049-2.041l-.013-.705c-.003-.148-.002-.295-.001-.446v-.215h.121l.58.021c.481.017.962.033 1.442.058h.001c.29.015.587.03.866.102.6.155 1.004.565 1.294 1.099.263.485.41 1.009.515 1.545.02.101.064.122.155.12.145-.004.29-.002.436-.001l.119.001h.002c.174.001.175.001.175-.177v-6.53zm1.777 6.155a9.23 9.23 0 01.25-2.097 7.79 7.79 0 01.779-2.033A7.102 7.102 0 0117.72 8.76a6.811 6.811 0 011.742-1.234 7.484 7.484 0 011.78-.617c.301-.065.609-.1.916-.135l.18-.021c.765-.09 1.528-.042 2.286.075 1.136.175 2.19.563 3.116 1.258a6.254 6.254 0 011.725 1.98c.327.588.567 1.208.737 1.86.197.752.3 1.517.301 2.291a13.65 13.65 0 01-.087 1.592 7.503 7.503 0 01-.59 2.124 7.38 7.38 0 01-1.128 1.832 6.873 6.873 0 01-2.703 1.923c-.536.21-1.09.36-1.658.453a9.009 9.009 0 01-1.836.113 8.982 8.982 0 01-2.02-.298c-.854-.236-1.638-.605-2.335-1.15a6.206 6.206 0 01-1.448-1.615 7.502 7.502 0 01-.802-1.76 8.125 8.125 0 01-.331-1.585c-.031-.304-.052-.61-.073-.915l-.03-.42zm10.468-.202a87.696 87.696 0 00-.027-.41c-.02-.3-.041-.607-.056-.913a11.371 11.371 0 00-.305-2.086c-.196-.82-.462-1.615-.985-2.299-.337-.44-.75-.765-1.302-.877-.688-.14-1.298.03-1.802.517-.368.355-.59.808-.763 1.283a8.401 8.401 0 00-.383 1.546c-.116.727-.18 1.459-.2 2.194a55.21 55.21 0 00-.012 1.726c.004.844.084 1.681.233 2.511a9 9 0 00.524 1.865c.17.411.375.8.66 1.141.611.734 1.363.954 2.258.67.553-.176.93-.58 1.212-1.073.414-.728.604-1.529.722-2.347.075-.522.123-1.05.156-1.576.027-.43.04-.859.052-1.294l.018-.578zm46.8 4.84l-.09-.108-.217.14-.32.205a4.381 4.381 0 01-1.886.67 7.996 7.996 0 01-1.373.038 5.198 5.198 0 01-2.015-.521c-.964-.482-1.643-1.244-2.104-2.21a6.617 6.617 0 01-.517-1.638 8.832 8.832 0 01-.136-1.848c.001-.075.03-.095.1-.093.085.003.17.002.256.002h8.618c.168 0 .168-.001.169-.153v-.015a9.696 9.696 0 00-.179-1.844 7.586 7.586 0 00-.608-1.891 5.835 5.835 0 00-1.062-1.537 5.068 5.068 0 00-1.695-1.159 6.222 6.222 0 00-1.575-.41A8.085 8.085 0 0065.9 6.8c-.595.08-1.18.209-1.734.45l-.029.013c-.304.133-.61.266-.899.426a6.506 6.506 0 00-1.883 1.588 6.806 6.806 0 00-.958 1.513c-.2.444-.353.91-.503 1.375-.209.645-.286 1.317-.325 1.99a8.678 8.678 0 00.222 2.456c.169.736.436 1.435.816 2.087a6.88 6.88 0 001.592 1.884 7.216 7.216 0 002.527 1.337c.628.189 1.27.29 1.925.327a8.452 8.452 0 001.886-.11 7.642 7.642 0 002.876-1.129c.594-.396 1.131-.857 1.559-1.435.018-.026.033-.082.018-.1a10.674 10.674 0 00-.26-.322zm-4.026-6.583l-.006.067h-.473l-3.66.071a8.45 8.45 0 00-.387.02c-.076.005-.115-.02-.105-.103l.049-.417v-.001c.035-.312.07-.624.12-.934.052-.325.13-.648.218-.965.178-.635.424-1.242.82-1.776.328-.44.732-.775 1.297-.842.467-.055.857.114 1.167.47.267.307.431.67.552 1.05.232.728.344 1.479.376 2.241l.039 1.005a.832.832 0 01-.007.114zm16.263-3.838l.013.654.03 1.441c.003.129.007.258.015.386.005.08-.014.123-.102.144a3.24 3.24 0 00-.25.074 4.656 4.656 0 01-.23.068c-.03.007-.097-.03-.108-.06a9.556 9.556 0 00-.831-1.849c-.398-.662-.9-1.225-1.625-1.534a3.32 3.32 0 00-.864-.228 3.35 3.35 0 00-.895-.001c-.704.1-1.197.512-1.484 1.153a2.24 2.24 0 00-.087 1.66c.121.367.383.644.676.888.345.287.731.51 1.134.699.523.245 1.053.475 1.583.705l.049.022c.154.067.31.13.467.192.245.098.49.196.726.311.708.344 1.368.764 1.87 1.387.438.546.664 1.18.739 1.875a5 5 0 01-.087 1.615 4.368 4.368 0 01-1.047 2.045 5.204 5.204 0 01-1.665 1.197 7.07 7.07 0 01-2.02.582 9.675 9.675 0 01-2.158.078l-.307-.025c-.437-.035-.874-.07-1.308-.126a13.102 13.102 0 01-1.378-.255 15.16 15.16 0 01-.952-.276 32.017 32.017 0 00-.44-.135c-.087-.026-.108-.08-.11-.17a703.28 703.28 0 00-.073-3.254v-.008l-.004-.168a32.638 32.638 0 00-.022-.656c-.004-.075.017-.114.1-.132.146-.032.29-.074.432-.123.106-.036.154-.016.197.098.268.711.582 1.4 1.005 2.035.309.463.673.878 1.125 1.205.679.492 1.45.685 2.279.656.64-.023 1.22-.22 1.688-.68.354-.348.558-.77.63-1.265.049-.33.03-.653-.06-.968-.144-.506-.497-.85-.92-1.133-.606-.405-1.28-.667-1.956-.927-.128-.05-.256-.098-.384-.146-.49-.184-.98-.369-1.448-.598-.74-.362-1.39-.856-1.83-1.58a3.643 3.643 0 01-.43-1.03 4.661 4.661 0 01-.065-1.892c.066-.393.2-.77.38-1.13a4.554 4.554 0 011.237-1.511c.403-.323.84-.594 1.327-.773l.05-.019c.337-.124.676-.25 1.023-.333.294-.071.597-.107.9-.142l.155-.018c.704-.085 1.406-.032 2.109.026.734.06 1.456.185 2.164.382.268.074.531.17.794.265l.118.042c.038.014.08.077.082.12.016.329.027.659.036.934v.002l.007.204zm-47.855 1.314l.091-3.325-.4.08c-.286.057-.563.113-.84.166-.244.048-.489.094-.734.14-.294.056-.588.112-.882.17-.351.068-.702.138-1.053.208l-1.054.209c-.495.097-.99.19-1.486.282l-.018.004c-.068.012-.108.037-.105.115a5.3 5.3 0 010 .374c-.003.076.027.106.101.115.116.015.23.032.346.049.097.014.194.028.29.04.476.063.861.264 1.074.714.147.31.216.643.24.983l.018.234c.034.449.068.898.077 1.348.021 1.031.034 2.063.025 3.094-.009.969-.035 1.937-.06 2.906l-.017.652c-.014.546-.04 1.092-.27 1.603-.208.466-.575.718-1.077.786-.165.023-.33.048-.497.073l-.24.036v.767h8.944l.032.002a.251.251 0 00.084-.006c.025-.008.062-.039.062-.06.004-.186.004-.372.003-.557v-.145l-.32-.028c-.239-.022-.47-.043-.701-.058-.321-.023-.633-.075-.903-.262-.338-.236-.485-.594-.542-.975a16.086 16.086 0 01-.171-1.663 72.737 72.737 0 01-.08-3.094c-.002-.984.017-1.97.035-2.954l.016-.837a.295.295 0 01.079-.178c.276-.295.639-.438 1.018-.543a4.132 4.132 0 011.583-.102c.429.049.844.157 1.237.335.165.075.327.158.491.242l.224.114.012-.016a.136.136 0 00.023-.035l.329-.843.24-.617.435-1.114.178-.454.099-.251c.069-.176.138-.35.205-.527.028-.076.049-.14-.06-.197-.723-.383-1.493-.446-2.28-.316-.487.08-.944.269-1.372.525-.919.551-1.579 1.34-2.093 2.263-.071.127-.138.257-.204.386l-.091.18-.042-.008v-.03z" fill="#fff"/></svg>