<svg fill="none" xmlns="http://www.w3.org/2000/svg" viewBox="0 0 23 24"><path d="M11.237.346C5.06.346 0 5.45 0 11.83c0 6.313 4.994 11.484 11.237 11.484 6.177 0 11.236-5.104 11.236-11.484 0-6.313-5.06-11.484-11.236-11.484zm0 22.028C5.52 22.374.92 17.673.92 11.83c0-5.843 4.6-10.544 10.317-10.544 5.717 0 10.316 4.701 10.316 10.544.066 5.843-4.6 10.544-10.316 10.544z" fill="#fff"/><path d="M11.237 20.426c.394 0 .591-.268.657-.604a.8.8 0 00.329.336c.13 0 .328 0 .46-.067a.801.801 0 00.328-.336.585.585 0 000-.47c.197.268.46.335.789.201.394-.201.525-.47.328-.873-.46-1.142-.92-2.216-1.38-3.358-.066-.134-.066-.201-.131-.336-.066-.067-.066-.134-.132-.201 0-.067-.065-.067-.131-.134.723.067 1.051.335 1.248.47.066.067.066.067.263 0h.263a.494.494 0 00.263.134l.789.604c.13.135.262.269.262.47 0 .135-.394.47-.46.605-.262.269.132.671.658.671-.132-.134-.198-.268-.132-.402.066 0 .132 0 .263-.068.131-.067.066-.403.131-.47.197-.201.723-.201 1.117-.201.132 0 .329-.067.263-.269.197 0 .263.202.263.336.197-.134.329-.604-.328-.739a.313.313 0 01.46 0c.131-.201-.198-.537-.723-.336 0 0-.263-.335-.92.47-.066-.067-.197-.134-.263-.2l-.92-.941c0-.403-.066-1.142-.526-1.545-.197-.201-.394-.268-.854-.403 0 0 .197-.336.263-.47.394.403 1.183.537 1.183-.134.657.671 1.248.268 1.248-.135 0 .202.066.403.132.605.065.201.394 1.074 1.117 1.074 0 .27 0 1.276.92 1.478.065 0 .065 0 .131.067.394.47 1.906.94 2.037.806-.131-.067-.328-.201-.328-.739 0-.335-.066-2.216-.066-4.835 0-.94-.066-3.963-3.023-4.366-.46-.067-.854 0-1.248.269-.526.403-.789 1.075-.46 1.813v.067c.131.202.065.336-.066.47a1.56 1.56 0 01-.854.47.737.737 0 01-.526-.2c-.329-.337-.526-.74-.657-1.21-.132-.873.066-1.343.066-1.41.262-.47.722-.873 1.314-.873.263-.537 1.051-.336 1.051-.336.197.067.263.067.329.202 0 0 .328-.538 0-.74-.329-.2-1.052-.268-1.052-.268 0-.336-.525-.604-1.577-.403-1.182.202-1.445-.268-1.445-.268-.066.604.394.873.525 1.007a5.332 5.332 0 00-1.248 2.955 5.332 5.332 0 00-1.249-2.955c.132-.067.592-.403.526-1.007 0 0-.263.47-1.446.268-.985-.201-1.577.067-1.577.403 0 0-.723.067-1.051.269-.329.201 0 .739 0 .739a.7.7 0 01.328-.202s.789-.201 1.052.336a1.7 1.7 0 011.314.873s.263.47.066 1.41c-.066.47-.329.873-.657 1.21-.132.134-.329.268-.526.2a1.56 1.56 0 01-.854-.47c-.132-.134-.197-.268-.066-.47v-.067c.329-.738.066-1.41-.46-1.813-.394-.269-.789-.336-1.249-.269-2.89.403-3.022 3.426-3.022 4.366 0 2.619-.066 4.5-.066 4.835 0 .538-.197.672-.329.739.198.134 1.709-.336 2.037-.806 0 0 .066-.067.132-.067.92-.202.92-1.209.92-1.478.723 0 1.051-.873 1.117-1.074.066-.202.131-.403.131-.605 0 .403.592.74 1.249.135 0 .671.788.537 1.183.134.065.134.263.47.263.47-.46.067-.658.202-.855.403-.525.47-.525 1.209-.525 1.545l-.92.94c-.066.067-.197.134-.263.202-.723-.806-.92-.47-.92-.47-.526-.202-.789.134-.723.335.131-.134.329-.067.46 0-.723.135-.526.672-.329.739 0-.134.066-.336.263-.336 0 .202.132.269.263.269.329 0 .92 0 1.117.201.132.067.066.403.132.47.065.068.197.068.263.068 0 .134 0 .201-.132.402.526.068.854-.402.657-.671-.131-.134-.46-.47-.46-.605 0-.134.132-.335.263-.47l.789-.604c.065-.067.131-.134.262-.134a.197.197 0 01.263 0c.197.067.197.067.263 0 .197-.135.526-.403 1.249-.47-.066 0-.066.067-.132.134-.065.067-.065.134-.131.201s-.066.202-.132.336c-.46 1.142-.92 2.216-1.38 3.358-.131.403 0 .672.329.873a.619.619 0 00.789-.201c-.066.201-.066.335 0 .47a.801.801 0 00.328.336c.132.067.329.067.46.067.197-.067.263-.135.329-.336.065.336.262.604.657.604z" fill="#fff"/></svg>