<svg fill="none" xmlns="http://www.w3.org/2000/svg" viewBox="0 0 24 24"><path fill-rule="evenodd" clip-rule="evenodd" d="M16.534 2c3.4 0 6.167 2.766 6.167 6.167v8.367c0 3.4-2.767 6.167-6.167 6.167H8.167A6.174 6.174 0 012 16.534V8.167C2 4.767 4.766 2 8.167 2h8.367zm0 2.082H8.167a4.084 4.084 0 00-4.085 4.085v8.367a4.084 4.084 0 004.085 4.084h8.367a4.084 4.084 0 004.084-4.084V8.167a4.084 4.084 0 00-4.084-4.085zM12.35 6.997a5.36 5.36 0 015.354 5.353 5.36 5.36 0 01-5.354 5.354 5.36 5.36 0 01-5.353-5.354 5.36 5.36 0 015.353-5.353zm0 2.082a3.271 3.271 0 100 6.543 3.271 3.271 0 000-6.543zm5.71-2.796a1.07 1.07 0 110 2.141 1.07 1.07 0 010-2.141z" fill="#fff"/></svg>