<svg fill="none" xmlns="http://www.w3.org/2000/svg" viewBox="0 0 78 22"><path fill-rule="evenodd" clip-rule="evenodd" d="M.325.631v19.223L19.541.63H.325zm1.373 20.596h19.216V2.004L1.698 21.227zM35.13 7.343c0 2.045-1.188 3.14-3.422 3.14h-2.32V4.174h2.32c2.177 0 3.422.864 3.422 3.054v.115zM31.82.631h-6.985v20.596h4.554v-7.49h2.573c4.61 0 7.58-2.073 7.58-6.423v-.115c0-4.35-2.8-6.568-7.721-6.568zm16.786 17.053c2.192 0 3.302-.98 3.302-2.852v-.115c0-1.844-1.11-2.852-3.413-2.852h-2.553v5.819h2.664zm.167 3.543h-7.27V.631h12.93v3.63H45.97l-.028 4.32h2.97c4.578 0 7.297 2.046 7.297 6.165v.115c0 4.033-2.525 6.366-7.436 6.366zM64.299.66h-4.781v20.567h4.78v-9.234l7.29 9.234h5.577l-8.764-10.844L76.752.63h-5.076L64.3 9.52V.66z" fill="#ACBBBE"/></svg>