<svg fill="none" xmlns="http://www.w3.org/2000/svg" viewBox="0 0 107 25"><path d="M106.259 18.571s-.403.443-.941.753c-.987.576-2.018.885-3.138 1.018a8.054 8.054 0 01-1.031.044c-4.259 0-6.455-2.655-6.455-6.284 0-5.09 4.258-6.284 7.037-6.284.807 0 1.613.132 2.42.486 1.211.531 1.973 1.637 1.973 2.788 0 1.152-.673 1.992-1.973 1.992-.762 0-1.299-.31-1.568-.93-.135-.31-.135-.62-.179-.929-.045-.31-.045-.62-.18-.93-.179-.53-.672-.84-1.165-.796a1.19 1.19 0 00-.941.442c-.359.398-.493.93-.493 1.46-.09 1.726.09 3.452.986 5.001.718 1.283 1.973 2.036 3.272 2.036.359 0 .763-.044 1.121-.177.403-.133.762-.31 1.121-.531l.134.84v.001zm-77.01-.973s.135.708.18.84c-.045.09-.314.31-.359.355-1.076.84-3.317 1.548-4.662 1.548-4.258 0-6.813-2.213-6.813-6.284 0-4.027 3.273-6.24 6.455-6.24 2.78 0 5.11 1.416 5.11 4.646v.443l-6.14 2.477.178.399c.314.708.718 1.371 1.434 1.903 1.121.84 2.87.885 4.259.132.09-.044.18-.132.358-.22zM22.66 14.19c.403-.177 1.524-.664 1.613-.708.448-.221.628-.398.673-.753.045-.31 0-1.239 0-1.46-.09-1.15-.493-1.77-1.031-1.77-1.479 0-1.748 1.991-1.255 4.69v.001zm68.09-8.054c1.478 0 2.644-1.15 2.644-2.61S92.184.915 90.749.915c-1.478 0-2.644 1.15-2.644 2.61s1.166 2.611 2.644 2.611zM18.4 19.014v.886h-6.5c-1.254-2.169-2.375-4.205-3.63-6.329-.045 0-.134-.044-.179-.044v3.85c0 1.195.403 1.637 1.613 1.637h.18v.886h-9.1v-.841c.314-.045.583-.045.897-.089.537-.133.897-.531.941-1.106V7.597a.897.897 0 00-.268-.664L.74 5.34c.135-.044.269-.088.403-.177l6.634-2.699v1.992s.224-.442.673-.885c.583-.531 1.524-.93 2.734-.93 1.658 0 3.272.885 4.124 2.169.673 1.017 1.031 2.168 1.031 3.319 0 3.894-3.406 5.575-6.275 5.575h-.27l-.044.133c.807.265 1.793.354 2.6.354.762 0 1.568-.089 2.062-.177l2.375 4.204c.493.886 1.39.797 1.613.797zM7.958 8.437c0 2.125 0 3.806 1.389 3.806 1.39 0 1.39-1.726 1.39-3.806 0-2.125-.135-3.806-1.39-3.806s-1.39 1.682-1.39 3.806zM85.19 18.97c-.673-.044-1.032-.398-1.032-1.018V2.11L77.3 4.898s.808.841 1.255 1.239c.135.133.224.31.27.53v10.887c0 .133 0 .31-.046.442-.09.62-.403.886-1.03.93h-.539v.885h8.517v-.885c-.18.044-.358.044-.538.044zm8.785 0c-.628-.044-.986-.398-1.03-1.018V7.686l-6.814 2.788s.807.84 1.255 1.239c.18.177.269.398.269.753v5.31c0 .841-.403 1.24-1.076 1.24h-.538v.884h8.517v-.885c-.224-.044-.404-.044-.584-.044h.001zm-32.9 0c-.718-.044-1.077-.398-1.121-1.106V7.64l-6.858 2.789s.807.84 1.255 1.239a1 1 0 01.268.531v4.381c0 .709-.538 1.195-1.255 1.195-.628 0-1.165-.486-1.165-1.195V7.598l-6.858 2.788s.807.841 1.255 1.24a.892.892 0 01.269.663v4.514c0 1.726 1.03 3.01 2.644 3.32.448.088.852.132 1.255.132 1.479 0 2.734-.576 3.81-1.77.045-.089.134-.133.179-.222.045 0 .09.044.09.044v1.505h6.634v-.885c-.09.044-.27.044-.404.044h.001zm-17.124-8.94c.672 1.018.986 2.301 1.03 3.673 0 1.726-.538 3.496-1.748 4.735-1.076 1.062-2.689 1.947-5.11 1.947-.493 0-.986-.088-1.524-.22v2.654c0 .841.358 1.195 1.21 1.24h.404v.884h-8.517v-.84c.224 0 .448-.045.717-.045.538-.088.897-.398.897-.93V12.464c0-.31-.09-.531-.27-.752-.447-.398-1.254-1.24-1.254-1.24l6.634-2.698v1.903l.09.044s.268-.487.583-.797c.896-.797 1.793-1.018 2.78-1.018 1.568-.088 3.227.797 4.078 2.125zm-4.572 4.293c0-2.478-.135-4.514-1.39-4.514s-1.39 2.036-1.39 4.514 0 4.514 1.39 4.514 1.39-2.036 1.39-4.514zM75.42 9.72c.896 1.15 1.254 2.433 1.254 3.938 0 2.036-.583 3.762-2.196 5.134-1.031.885-2.6 1.549-4.841 1.549-1.076 0-2.152-.177-3.183-.708a12.588 12.588 0 01-1.434-.886 186.67 186.67 0 00-1.255 1.107h-.762V6.844c0-.31-.09-.53-.269-.753-.448-.398-1.255-1.239-1.255-1.239l6.858-2.788v7.258l.09.044s.896-1.593 3.227-1.593a4.885 4.885 0 013.765 1.948zm-4.304 4.602c0-2.478-.134-4.514-1.39-4.514-1.254 0-1.389 2.036-1.389 4.514s0 4.514 1.39 4.514c1.389-.044 1.389-2.036 1.389-4.514z" fill="#ACBBBE"/></svg>