<svg fill="none" xmlns="http://www.w3.org/2000/svg" viewBox="0 0 123 23"><path fill-rule="evenodd" clip-rule="evenodd" d="M92.786 7.68h.452L93.033.89h-.412l-1.356 1.605c-1.029-.947-2.138-1.193-2.878-1.193-3.74 0-6.29 4.278-6.29 9.504 0 4.361 2.055 9.544 6.29 9.544 3.536 0 4.687-4.03 5.057-7.075l-.411-.124c-.329 2.428-1.234 5.595-3.536 5.595-2.056 0-2.096-3.126-2.096-3.949V6.363c0-1.276.081-3.95 1.89-3.95 1.645 0 3.084 2.304 3.495 5.266zM44.03 3.646c0-1.152.37-1.645.987-1.645.576 0 .987.493.987 1.645V18.05c0 1.11-.411 1.604-.987 1.604-.617 0-.987-.495-.987-1.604V3.647zm-5.344 7.2c0 4.527 2.137 9.504 6.33 9.504 4.194 0 6.29-4.977 6.29-9.504 0-4.567-2.096-9.545-6.29-9.545-4.193 0-6.33 4.978-6.33 9.545zm-22.9-8.475h-1.274v-.7h11.347v6.542h-.411c-.538-5.8-3.414-5.843-4.318-5.843h-.33v8.024h.247c1.645 0 2.303-2.057 2.22-3.909h.453v8.434h-.453c.083-1.851-.575-3.867-2.22-3.867h-.246v8.229c3.453.082 4.645-3.127 4.933-6.377h.452v7.036H14.511v-.66h1.274V2.372zm-9.208 7.694V2.372h.706c.496-.003 1.266-.007 1.266 2.221v3.21c0 2.265-.795 2.263-1.29 2.263h-.683zM1.52 19.281H.286v.659h8.962c2.18 0 4.44-.783 4.44-4.321 0-2.427-.863-4.731-4.234-5.06v-.289c1.645-.123 3.947-.905 3.947-4.32 0-3.867-3.001-4.279-3.988-4.279H.286v.7H1.52v16.91zm5.058 0v-8.558h.683c.495 0 1.29-.002 1.29 2.263v4.031c0 2.266-.796 2.265-1.29 2.264h-.683zm25.695 0V2.372h-.863c-.37 0-.823.041-.823 1.481v5.555c0 4.525-.164 7.694-1.644 9.874h3.33zM28.45 2.372v-.7h10.113v.7H37.33v16.91h1.562v3.662h-.41c-.083-2.715-1.07-3.003-3.249-3.003h-4.357c-2.18 0-3.166.288-3.248 3.003h-.412v-3.662h.247c1.603 0 2.631-2.468 2.631-9.874v-5.35c0-1.604-.576-1.686-.987-1.686h-.657zM53.486 3.77h.04l3.536 16.17h.699l3.576-16.088h.082v15.43h-1.233v.658h7.524v-.659h-1.234V2.372h1.234v-.7h-6.331l-1.645 7.447h-.082l-1.603-7.447h-6.331v.7h1.274v14.646c0 2.016-.74 2.305-1.274 2.264v.659h3.37v-.659h-.328c-.576 0-1.274-.205-1.274-2.264V3.771zm20.143-.124c0-1.152.41-1.645.987-1.645.617 0 .986.493.986 1.645V18.05c0 1.11-.37 1.604-.986 1.604-.576 0-.987-.495-.987-1.604V3.647zm-5.304 7.2c0 4.527 2.097 9.504 6.29 9.504s6.332-4.977 6.332-9.504c0-4.567-2.139-9.545-6.331-9.545-4.194 0-6.29 4.978-6.29 9.545zm29.602-8.475h-.003.003zm-.003 0c-2.342.208-3.163 3.868-3.327 5.842h-.412V1.672h12.539v6.542h-.452c-.165-1.974-.988-5.637-3.291-5.842v16.91h1.481v.659h-8.059v-.659h1.521V2.372zm16.036 12.055h-.081V2.372h.616v-.7h-6.909v.7h1.236v16.91h-1.236v.659h6.909v-.659h-.616v-2.016l1.891-10.78h.081v12.796h-.617v.659h6.907v-.659h-1.233V2.372h1.233v-.7h-6.907v.7h.617v1.234l-1.891 10.821z" fill="#ACBBBE"/></svg>