<svg fill="none" xmlns="http://www.w3.org/2000/svg" viewBox="0 0 24 24"><path d="M12.836 5c1.364.007 6.46.056 7.88.418.899.225 1.608.885 1.85 1.723.39 1.326.43 3.898.433 4.56v.249c-.004.528-.043 3.235-.433 4.612-.242.837-.95 1.498-1.85 1.723-1.457.357-6.787.398-7.98.402h-.474c-1.19-.005-6.508-.047-7.98-.418-.9-.225-1.608-.886-1.85-1.723-.375-1.312-.425-3.882-.432-4.544v-.316c.007-.66.057-3.22.431-4.545.242-.837.97-1.514 1.851-1.74 1.42-.347 6.516-.395 7.88-.401h.674zm-2.43 3.912v5.862l5.466-2.93-5.466-2.932z" fill="#fff"/></svg>